<?xml version="1.0" encoding="UTF-8" standalone="no"?>
<svg
   xmlns:dc="http://purl.org/dc/elements/1.1/"
   xmlns:cc="http://creativecommons.org/ns#"
   xmlns:rdf="http://www.w3.org/1999/02/22-rdf-syntax-ns#"
   xmlns:svg="http://www.w3.org/2000/svg"
   xmlns="http://www.w3.org/2000/svg"
   viewBox="0 0 734.35999 771.97333"
   height="771.97333"
   width="734.35999"
   xml:space="preserve"
   id="svg2"
   version="1.1"><metadata
     id="metadata8"><rdf:RDF><cc:Work
         rdf:about=""><dc:format>image/svg+xml</dc:format><dc:type
           rdf:resource="http://purl.org/dc/dcmitype/StillImage" /></cc:Work></rdf:RDF></metadata><defs
     id="defs6" /><g
     transform="matrix(1.3333333,0,0,-1.3333333,0,771.97333)"
     id="g10"><g
       transform="scale(0.1)"
       id="g12"><path
         id="path14"
         style="fill:#ee219b;fill-opacity:1;fill-rule:evenodd;stroke:none"
         d="m 3049.14,5201.96 c 76.43,-163.69 43.73,-365.36 -86.3,-507.08 -113.6,-126.56 -302.2,-152.07 -445.34,-60.25 88.86,-148.22 135.71,-270.92 77.53,-442.24 61.57,14.56 123.45,27.79 185.6,39.69 147.63,32.42 298.21,49.55 449.36,51.12 162.13,4.85 314.47,-52.61 362.48,-222.75 l 265.92,-827.91 c 15.93,-40.13 25.1,-82.63 27.15,-125.75 4.38,-72.74 -61.97,-164.91 -111.78,-211.83 l 326.39,-1549.39 c 28.5,-103.51 39.34,-210.99 32.16,-317.93 572.93,423.04 944.51,1103.11 944.51,1869.95 0,1182.91 -884.17,2159.3 -2027.68,2304.37" /><path
         id="path16"
         style="fill:#f4711f;fill-opacity:1;fill-rule:evenodd;stroke:none"
         d="M 2609.59,579.031 C 2572,623.949 2540,676.82 2514.84,738.156 l -666,1553.224 -23.98,3.69 c -117.34,15.3 -195.76,93.55 -233.18,213.77 l -215.22,696.07 c -29.78,102.73 -73.63,230.26 -37.85,335.59 21.14,58.76 58.89,110.13 108.64,147.87 l 101.12,76.38 c 90.17,60 183.93,114.42 280.77,162.94 -177.14,-69.3 -378.64,-5.76 -483.96,152.63 -140.47,211.58 -83.94,496.85 126.59,638.87 99.53,84.52 228.23,126.65 358.48,117.34 105.91,-9.33 205.22,-55.44 280.7,-130.32 -81.82,122.93 -86.34,283.55 -28.03,415.99 C 1127.09,4834.32 430.887,3947.26 430.887,2897.59 430.887,1663.1 1393.84,653.523 2609.59,579.031" /><path
         id="path18"
         style="fill:#ffffff;fill-opacity:1;fill-rule:evenodd;stroke:none"
         d="m 700.711,3692.11 c 12.848,43.98 21.457,61.93 38.426,74.03 17.898,15.23 37.054,23.28 60.558,23.24 13.309,-0.49 22.598,-3.2 59.754,-14.06 l 300.361,-87.73 c 43.36,-12.66 49.54,-14.46 61.02,-21.22 35.67,-27.48 45.06,-64.32 29.46,-117.74 l -33.04,-113.11 c -23.86,-81.68 -64.8,-141.33 -126.84,-181.18 -69.17,-41.18 -153.586,-54.04 -231.004,-31.43 -74.308,21.7 -138.531,77.98 -171.566,149.01 -23.949,44.51 -34.969,98.87 -30.5,148.72 3.344,22.9 10.328,58.36 21.34,96.07 z m 148.855,-111.68 c -15.25,-63.74 -19.839,-79.45 -10.785,-105.97 11.235,-30.56 39.801,-59.36 73.856,-69.31 40.254,-11.76 83.84,-0.62 110.323,32.57 13.9,12.99 22.49,30.94 32.58,65.5 0.93,3.14 2.76,9.42 4.59,15.71 l -210.564,61.5" /><path
         id="path20"
         style="fill:#ffffff;fill-opacity:1;fill-rule:evenodd;stroke:none"
         d="m 644.656,3117.58 c 48.453,35.92 87.184,48.96 164.606,48.82 l 200.008,-0.33 c 51.61,-0.09 67.73,-6.67 87.06,-23.08 22.56,-16.4 35.41,-45.87 35.36,-75.34 -0.03,-22.92 -9.78,-52.36 -29.15,-68.7 -19.39,-19.6 -38.76,-26.11 -80.7,-26.04 l -222.578,0.38 c -41.946,0.07 -67.782,-19.53 -67.84,-52.26 -0.055,-32.73 25.723,-49.15 64.43,-49.21 l 225.808,-0.39 c 41.96,-0.07 54.84,-6.63 74.17,-23.04 22.56,-16.4 35.41,-45.87 35.36,-72.06 -0.04,-29.45 -13,-58.9 -32.39,-75.23 -22.6,-16.33 -38.76,-22.84 -90.36,-22.76 l -199.999,0.34 c -77.429,0.14 -132.246,19.87 -177.336,62.5 -54.761,45.91 -83.679,114.7 -83.57,180.16 0.133,78.55 35.746,150.52 97.121,196.24" /><path
         id="path22"
         style="fill:#ffffff;fill-opacity:1;fill-rule:evenodd;stroke:none"
         d="m 685.008,2201.5 150.144,184.04 -115.398,-30.3 c -37.422,-9.83 -54.481,-8.01 -80.012,1 -22.383,9.85 -41.488,33.12 -47.375,56.72 -6.625,26.54 -0.781,56.38 16.645,79.83 18.879,17.53 32.996,27.53 73.539,38.17 l 346.179,90.9 c 59.26,15.56 105.52,-10.02 119.5,-66.08 5.9,-23.6 1.68,-46.71 -18.84,-70.96 l -143.894,-182.42 102.924,27.03 c 34.3,9 54.48,8.02 76.14,1.12 25.52,-9.01 47.73,-31.48 55.1,-60.98 5.89,-23.6 2.41,-49.67 -14.99,-73.1 -15.04,-19.67 -32.29,-30.48 -66.58,-39.49 l -336.824,-88.44 c -43.645,-11.46 -63.832,-10.47 -86.227,-0.64 -25.519,9.02 -44.625,32.3 -50.516,55.9 -7.363,29.5 -0.043,53.43 20.485,77.7" /><path
         id="path24"
         style="fill:#ffffff;fill-opacity:1;fill-rule:evenodd;stroke:none"
         d="m 989.523,1590.95 60.217,218.31 -80.736,-58.99 c -52.086,-38.07 -109.141,-31.09 -143.902,16.48 -34.762,47.57 -22.137,101.38 29.961,139.45 l 294.317,215.06 c 49.5,36.17 106.52,29.2 139.35,-15.72 15.47,-21.15 25.02,-50.65 19.06,-75.29 -5.97,-24.63 -18.42,-45.89 -44.47,-64.92 l -72.91,-53.28 184.2,4.88 c 35.03,1.28 60.9,-12.25 80.21,-38.69 30.91,-42.28 22.14,-101.38 -19.53,-131.83 -13.02,-9.53 -32.51,-15.66 -46.79,-17.98 l -169.94,-2.55 -50.29,-182.71 c -2.68,-18.18 -16.4,-32.24 -32.02,-43.65 -41.66,-30.45 -100.65,-20.84 -131.54,21.44 -15.46,21.15 -23.097,47.99 -15.187,69.99" /><path
         id="path26"
         style="fill:#ffffff;fill-opacity:1;fill-rule:evenodd;stroke:none"
         d="m 1165.8,1381.68 c -1.01,27.56 9.87,43.89 36.42,72.07 l 241.16,255.89 c 33.19,35.22 46.62,44.71 76.41,47.67 25.19,2.87 50.88,-8.05 69.93,-26 21.46,-20.22 33.86,-45.22 32.5,-70.52 1.03,-27.56 -7.49,-46.14 -40.68,-81.36 l -241.15,-255.89 c -24.34,-25.83 -46.98,-35.52 -69.96,-36.04 -25.18,-2.86 -55.47,7.95 -72.15,23.67 -19.05,17.95 -31.64,47.55 -32.48,70.51" /><path
         id="path28"
         style="fill:#ffffff;fill-opacity:1;fill-rule:evenodd;stroke:none"
         d="m 1671.81,993.281 -27.22,241.169 -63.09,-101.33 c -20.46,-32.86 -31.76,-44.81 -57.6,-55.35 -26.89,-6.04 -55.95,-3.15 -80.95,12.41 -25,15.57 -43.2,42.09 -45.15,69.93 -1.96,27.81 3.79,43.23 25.95,78.83 l 189.27,303.98 c 32.4,52.03 86.19,64.13 136.21,32.99 25.02,-15.56 36.56,-34.17 42.38,-68.18 l 30.62,-235.68 56.28,90.38 c 18.75,30.11 31.76,44.8 53.11,54.32 25.84,10.53 62.14,6.91 87.14,-8.65 25.02,-15.57 42.11,-37.64 44.08,-65.45 3.66,-25.08 -1.02,-44.98 -19.77,-75.1 L 1858.92,971.793 c -23.86,-38.328 -36.87,-53.031 -61,-60.809 -28.61,-8.8 -57.66,-5.918 -82.67,9.657 -24.99,15.558 -40.41,40.355 -43.44,72.64" /><path
         id="path30"
         style="fill:#ffffff;fill-opacity:1;fill-rule:evenodd;stroke:none"
         d="m 4558.57,1652.55 c -24.08,-38.03 -35.35,-49.91 -51.98,-58.41 -25.41,-10.54 -43,-14.62 -63.46,-5.48 -12.42,4.07 -20.45,9.15 -52.57,29.48 l -259.63,164.4 c -40.15,25.42 -42.82,27.1 -51.8,36.59 -27.93,32.91 -25.06,72.95 2.45,116.41 l 61.9,97.77 c 44.7,70.6 99.55,115.77 168.93,136.52 73.78,21.77 156.94,10.98 223.86,-31.39 66.91,-42.36 109.55,-111.23 125.8,-186.2 6.15,-49.54 1.76,-103.84 -16,-149.66 -9.36,-20.7 -23.87,-49.56 -46.23,-84.86 z m -107.47,144.13 c 34.38,54.31 40.31,69.59 38.96,97.06 -0.57,34.62 -19.7,69.55 -49.15,88.2 -34.78,22.02 -83.34,22.33 -115.64,0.93 -18.35,-11.21 -31.33,-25.82 -50.24,-55.68 l -8.61,-13.58 184.68,-116.93" /><path
         id="path32"
         style="fill:#ffffff;fill-opacity:1;fill-rule:evenodd;stroke:none"
         d="m 4664.65,2166.34 c -159.2,-27.59 -306.56,80.64 -335.09,245.34 -27.99,161.52 77.5,313.56 233.58,340.6 159.19,27.59 312.79,-79.58 340.77,-241.09 28.54,-164.71 -80.06,-317.27 -239.26,-344.85 z m -31.83,183.7 c 62.44,10.82 103.6,70.14 93.17,130.32 -10.43,60.18 -69.14,102.19 -128.46,91.91 -59.3,-10.26 -100.46,-69.58 -90.03,-129.76 10.42,-60.19 66.02,-102.75 125.32,-92.47" /><path
         id="path34"
         style="fill:#ffffff;fill-opacity:1;fill-rule:evenodd;stroke:none"
         d="m 4890.61,3148.57 -179.16,-160.92 120.08,8.5 c 37.92,2.68 54.18,-2.61 74.28,-17.3 23.25,-14.46 37.93,-42.43 39.74,-68.08 2.04,-28.84 -11.93,-55.62 -32.69,-76.42 -17.82,-17.37 -33.4,-21.71 -74.48,-24.61 l -353.93,-25.05 c -56.88,-4.03 -97.53,31.77 -101.61,89.47 -1.82,25.66 6.08,48.77 30,69.8 l 172.61,163.68 -107.44,-7.6 c -37.93,-2.69 -54.17,2.6 -74.04,14.08 -26.42,14.25 -41.11,42.21 -43.15,71.07 -2.04,28.86 5.86,51.96 26.61,72.77 17.82,17.38 36.33,25.12 71.1,27.58 l 341.28,24.16 c 44.24,3.13 60.5,-2.16 83.76,-16.63 23.25,-14.45 37.7,-39.21 39.74,-68.07 2.04,-28.85 -8.78,-55.4 -32.7,-76.43" /><path
         id="path36"
         style="fill:#ffffff;fill-opacity:1;fill-rule:evenodd;stroke:none"
         d="m 4772.56,3511.33 c -27.03,-49.87 -61.18,-74.82 -128.26,-103.26 l -180.85,-76.67 c -49.57,-21.02 -62.49,-23 -85,-18.59 -27.95,9.1 -50.92,30.79 -60.96,54.46 -10.04,23.68 -11.31,51.07 -0.1,73.28 9.97,25.18 24.97,38.52 59.97,53.36 l 204.16,86.56 c 37.92,16.07 53.73,43.71 41.19,73.31 -13.81,32.55 -44.67,40.41 -79.67,25.57 l -207.09,-87.79 c -37.91,-16.08 -47.91,-16.83 -74.6,-10.68 -23.78,7.39 -45.49,26.1 -56.78,52.75 -10.04,23.67 -9.66,55.25 1.57,77.46 9.97,25.19 26.21,35.56 69.96,54.11 l 183.75,77.91 c 70,29.68 127.11,32.94 183.01,14.74 64.23,-21.66 119.74,-71.44 146.09,-133.59 28.85,-68.04 21.47,-148.01 -16.39,-212.93" /><path
         id="path38"
         style="fill:#ffffff;fill-opacity:1;fill-rule:evenodd;stroke:none"
         d="m 4476.7,4206.41 c -5.89,-22.18 -15.73,-35 -44.42,-59.95 l -212.78,-184.98 33.75,-38.82 c 21.09,-24.26 28.97,-42.98 27.56,-65.48 -1.7,-27.04 -9.71,-46.79 -26.44,-61.33 -23.91,-20.78 -64.98,-26.68 -89.01,-13.51 -19.84,8.32 -24.05,13.18 -74.66,71.39 l -122.34,140.69 c -16.88,19.41 -27.41,31.54 -31.63,36.38 -4.23,4.86 -6.32,7.28 -10.55,12.14 -24.74,38.11 -17.43,82.81 13.65,109.83 19.12,16.63 44.58,25.98 69.2,21.82 17.98,-1.39 39.65,-16.63 60.73,-40.88 l 29.52,-33.97 210.38,182.92 c 26.29,22.86 42.75,32.91 65.54,35.68 29.66,4.5 58.49,-4.52 79.58,-28.78 21.09,-24.26 26.02,-54.05 21.92,-83.15" /><path
         id="path40"
         style="fill:#ffffff;fill-opacity:1;fill-rule:evenodd;stroke:none"
         d="m 4118.16,4440.36 c -30.56,-36.4 -82.5,-38.29 -116.96,-9.36 -17.25,14.47 -27.95,31.71 -35.43,62.8 -9.18,49.08 -12.06,55.64 -24.37,65.97 -9.85,8.26 -23.35,7.19 -33.54,-4.95 -8.15,-9.71 -9.75,-16.63 -6.44,-27.68 2.89,-6.56 3.32,-11.05 19.37,-36.93 8.23,-15.19 18.51,-27.94 24.28,-41.07 45.69,-75.57 40.61,-141.61 -8.26,-199.85 -69.26,-82.5 -180.12,-84.59 -273.68,-6.06 -78.78,66.12 -105.29,154.56 -60.48,207.94 26.47,31.54 69,37.21 101.01,10.34 19.7,-16.54 30.39,-33.78 38.73,-73.85 4.58,-24.53 9.93,-33.16 17.32,-39.37 9.84,-8.26 25.81,-9.25 33.96,0.46 12.21,14.56 6.44,27.68 -17.85,68.74 -28.78,40.7 -46.95,89.05 -54.44,120.13 -8.76,44.58 6.61,97.87 41.23,139.11 30.55,36.41 75.87,60.41 125.36,64.36 51.53,6.39 103.13,-12.12 157.29,-57.58 91.09,-76.45 121.78,-184.91 72.9,-243.15" /><path
         id="path42"
         style="fill:#f4711f;fill-opacity:1;fill-rule:evenodd;stroke:none"
         d="m 2750.29,1639.61 c -39.61,-13.78 -57.54,-16.91 -75.58,-10.69 -20.85,5.21 -37.02,15.21 -49.46,32.73 -6.75,10.21 -9.65,18.51 -21.28,52.01 l -94.26,270.38 c -13.55,39.02 -15.53,44.59 -16.55,56.71 1.5,41.16 23.97,67.75 72.03,84.51 l 101.83,35.48 c 73.55,25.61 139.74,26.81 202.38,1.74 67.44,-29.66 121.85,-85.71 146.12,-155.38 23.29,-66.9 15.47,-144.61 -19.89,-206.98 -20.39,-41.51 -55.06,-78.58 -94.56,-101.73 -18.84,-9.68 -48.98,-23.32 -82.91,-35.13 z m 4.1,170.22 c 55.58,22.5 69.73,27.44 84.69,48.24 16.82,24.62 23.09,61.21 12.39,91.85 -12.6,36.24 -44.06,62.82 -82.86,64.92 -17.04,3.43 -34.99,0.32 -66.11,-10.53 -2.85,-0.96 -8.5,-2.95 -14.16,-4.95 l 66.05,-189.53" /><path
         id="path44"
         style="fill:#ee219b;fill-opacity:1;fill-rule:evenodd;stroke:none"
         d="m 3240.14,1774.95 c -39.58,-13.78 -54.7,-15.91 -71.78,-12.52 -24.64,7.06 -39.83,14.27 -49.48,32.82 -6.7,10.18 -9.61,18.51 -21.29,51.94 l -94.16,270.39 c -14.6,41.85 -15.53,44.64 -16.61,56.74 -1.32,40.18 23.96,67.76 69.22,83.53 l 101.82,35.46 c 73.55,25.63 139.71,26.81 202.38,1.76 66.45,-26.87 120.86,-82.94 145.15,-152.64 24.26,-69.64 15.5,-144.63 -16.06,-208.74 -24.21,-39.73 -58.9,-76.8 -98.4,-99.94 -18.82,-9.68 -46.17,-22.33 -82.89,-35.16 z m 5.1,167.44 c 56.56,19.74 69.75,27.45 84.65,48.25 19.65,25.63 25.95,62.19 15.25,92.85 -12.63,36.22 -47.88,64.61 -83.85,67.69 -19.88,2.47 -37.82,-0.66 -68.92,-11.49 l -14.16,-4.97 67.03,-192.33" /><path
         id="path46"
         style="fill:#83382c;fill-opacity:1;fill-rule:evenodd;stroke:none"
         d="m 3976.54,832.094 c 93.81,148.289 79.92,282.756 36.51,485.766 0,0 -314.77,1466.25 -324.58,1529.05 -9.81,62.81 -14.93,72.94 3.48,88.15 18.44,15.26 48.3,48.33 73.98,83.95 25.73,35.57 48.5,60.59 8.07,176.75 -40.45,116.21 -232.57,726.19 -267.92,834.17 -35.29,108.07 -95.88,227.96 -708.67,108.67 -612.76,-119.3 -999.88,-313.14 -1201.04,-454.31 -201.19,-141.11 -221.86,-186.59 -135.5,-463.01 86.37,-276.42 177.38,-587.79 214.34,-693.04 36.95,-105.25 93.45,-143.57 159.88,-152.1 66.42,-8.5 74.41,-7.69 88.37,-43.33 13.91,-35.6 611.81,-1429.126 672.28,-1567.865 44.39,-101.859 113.36,-207.886 265.63,-265.863 -35.64,-1.574 -71.49,-2.371 -107.52,-2.371 -1322.05,0 -2393.787,1071.739 -2393.787,2393.789 0,1106.46 750.697,2037.59 1770.557,2311.85 27.45,42.54 58.69,80.58 92.93,113.69 -111.29,-24.21 -221.03,-56.16 -328.61,-95.86 C 1588.25,5106.89 1306.96,4934.13 1067.22,4711.82 827.551,4489.91 633.902,4222.99 497.324,3926.28 347.945,3601.43 270.906,3248.02 271.535,2890.47 271.633,2596.88 322.477,2307.12 424.172,2031.59 537.461,1724.9 710.219,1443.61 932.523,1203.87 1154.44,964.199 1421.36,770.551 1718.07,633.969 2042.91,484.594 2396.33,407.555 2753.88,408.184 c 293.58,0.097 583.35,50.941 858.88,152.636 306.69,113.285 587.98,286.043 827.72,508.35 511.49,473.96 796.9,1134.1 795.68,1821.35 0.32,293.04 -51.34,583.81 -152.6,858.8 l -0.03,0.09 c -113.29,306.69 -286.05,587.98 -508.35,827.72 -221.92,239.67 -488.84,433.32 -785.54,569.9 -279.98,128.74 -581.18,203.75 -887.95,221.61 40.4,-28.29 74.12,-61.15 101.33,-97.17 1204.96,-124.61 2144.62,-1143.06 2144.62,-2380.97 0,-875.35 -469.85,-1640.96 -1171.1,-2058.406 z m -2262.89,2563.246 -216.81,38.43 c 71.09,82.79 347.73,324.63 1026.61,517.09 678.88,192.43 891.34,79.75 891.34,79.75 l -149.95,-138.72 c 0,0 -345.77,-22.36 -776.42,-140.75 -430.65,-118.32 -774.77,-355.8 -774.77,-355.8 z m 1727.1,455.78 c 0,0 206.94,-638.77 222.27,-684.67 15.39,-45.91 23.31,-75.35 -12.59,-111.69 -35.89,-36.34 -190.54,-193.3 -639.61,-365.22 -449.06,-171.88 -873.27,-215.75 -1022.62,-204.69 -149.34,11.06 -174.86,17.26 -196.96,89.65 -22.08,72.38 -216.5,701.09 -216.5,701.09 1153.83,-27.66 1866.01,575.53 1866.01,575.53 z m 466.18,-2576.89 c 41.25,-164.75 30.05,-354.527 -104.11,-470.179 -134.19,-115.703 -475.65,-242 -682.41,-226.684 -206.81,15.321 -343.47,80.293 -419.49,243.309 -76.01,163.023 -653.88,1535.724 -653.88,1535.724 1031.18,111.44 1522.82,487.51 1522.82,487.51 l 337.07,-1569.68" /><path
         id="path48"
         style="fill:#83382c;fill-opacity:1;fill-rule:evenodd;stroke:none"
         d="m 2049.8,4173.9 c -34.4,-44.67 -25.26,-77.05 0.95,-102.8 26.21,-25.73 115.31,-3.97 134.82,123.08 19.52,127.04 -0.75,262.85 -100.4,398.75 -99.69,135.89 -320.71,231.65 -560.96,48.75 -240.24,-182.89 -172.09,-413.18 -106.32,-519.15 65.81,-105.93 252.25,-200.57 420.07,-98.96 167.78,101.62 142.97,253.66 89.34,348.56 -53.61,94.95 -166.04,97.51 -215.46,73.75 -49.39,-23.8 -102.84,-63.13 -71.88,-113.11 30.91,-49.93 59.2,-39 108.91,-10.91 49.71,28.06 109.76,0.51 104.44,-110.28 -5.31,-110.81 -248.55,-159.18 -327.13,-30.64 -78.57,128.54 -66.52,251.83 115.09,384.22 181.62,132.38 355.21,-19.1 411.83,-151.83 56.56,-132.66 -3.3,-239.43 -3.3,-239.43" /><path
         id="path50"
         style="fill:#83382c;fill-opacity:1;fill-rule:evenodd;stroke:none"
         d="m 2365.22,4475.43 c 64.53,-84.21 45.79,-203.18 23.3,-244.07 -22.48,-40.87 -19.26,-85.1 16.16,-102.84 35.48,-17.8 79.9,-30.11 119.93,140.21 40.06,170.27 -115.67,368.06 -214,502.42 -98.35,134.34 -28.36,299.54 61.85,386.68 90.19,87.17 316.76,144.05 432.4,28.64 115.62,-115.42 92.18,-260.96 2.09,-358.13 -90.13,-97.14 -169.64,-51.57 -192.85,-14.52 -23.22,37.03 -27.6,75.56 9.24,115.4 36.84,39.77 134.83,-38.86 147.92,50.31 13.12,89.16 -147.45,101.96 -222.39,45.43 -74.94,-56.55 -99.13,-207.81 -25.8,-289.78 73.36,-81.95 239.66,-117.37 373.48,12.77 133.79,130.17 113.76,307.78 64.81,426.93 -48.91,119.11 -344.15,314.94 -606.2,132.09 -262.06,-182.87 -252.68,-440.99 -177.05,-550.57 75.64,-109.55 187.11,-280.97 187.11,-280.97" /></g></g></svg>