<?xml version="1.0" encoding="UTF-8" standalone="no"?>
<!-- Generator: Adobe Illustrator 18.0.0, SVG Export Plug-In . SVG Version: 6.00 Build 0)  -->

<svg
   xmlns:dc="http://purl.org/dc/elements/1.1/"
   xmlns:cc="http://creativecommons.org/ns#"
   xmlns:rdf="http://www.w3.org/1999/02/22-rdf-syntax-ns#"
   xmlns:svg="http://www.w3.org/2000/svg"
   xmlns="http://www.w3.org/2000/svg"
   xmlns:sodipodi="http://sodipodi.sourceforge.net/DTD/sodipodi-0.dtd"
   xmlns:inkscape="http://www.inkscape.org/namespaces/inkscape"
   version="1.1"
   id="Layer_1"
   x="0px"
   y="0px"
   viewBox="0 0 468.604 169.814"
   enable-background="new 0 0 480 178.9"
   xml:space="preserve"
   inkscape:version="0.91 r13725"
   sodipodi:docname="Dunkin'_Donuts.svg"
   width="468.604"
   height="169.814"><metadata
     id="metadata49"><rdf:RDF><cc:Work
         rdf:about=""><dc:format>image/svg+xml</dc:format><dc:type
           rdf:resource="http://purl.org/dc/dcmitype/StillImage" /><dc:title></dc:title></cc:Work></rdf:RDF></metadata><defs
     id="defs47" /><sodipodi:namedview
     pagecolor="#ffffff"
     bordercolor="#666666"
     borderopacity="1"
     objecttolerance="10"
     gridtolerance="10"
     guidetolerance="10"
     inkscape:pageopacity="0"
     inkscape:pageshadow="2"
     inkscape:window-width="1680"
     inkscape:window-height="931"
     id="namedview45"
     showgrid="false"
     inkscape:zoom="1.8266925"
     inkscape:cx="210.02215"
     inkscape:cy="86.046799"
     inkscape:window-x="0"
     inkscape:window-y="1"
     inkscape:window-maximized="1"
     inkscape:current-layer="Layer_1" /><path
     d="m 227.10193,40.913277 c -2.9,0 -5.7,1.4 -7.5,3.7 -1.8,2.1 -2.1,3.4 -2.1,7.8 l 0,23.5 c 0,4.1 -1.9,6.5 -5.3,6.5 -3.3,0 -5.3,-2.6 -5.3,-6.8 l 0,-23.2 c 0,-4.2 -0.7,-6.4 -2.6,-8.4 -1.8,-1.8 -4.5,-3.1 -7.2,-3.1 -2.8,0 -5.8,1.5 -7.7,3.8 -1.7,2.2 -2,3.6 -2,9.2 l 0,20.7 c 0,7.8 1.1,11.9 4.8,16.899999 4.7,6.4 12.2,10.200004 20,10.200004 7,0 13.9,-3.200004 18.6,-8.600004 4.2,-4.799999 6.2,-10.499999 6.2,-18.499999 l 0,-20.9 c 0,-5.3 -0.4,-7.1 -2.3,-9.3 -1.8,-2.1 -4.8,-3.5 -7.6,-3.5 m -48.6,19.4 c -1.6,-4.4 -4.3,-8.3 -7.8,-11.5 -5.7,-5.1 -12.5,-7.5 -21.4,-7.5 l -11.9,0 c -5.6,0 -9.3,2.2 -10.7,6.4 -0.4,1.3 -0.4,1.9 -0.4,6.8 l 0,32.4 c 0,4.099999 0,4.999999 0.3,6.399999 0.6,2.3 1.9,3.9 4.1,5.3 1.8,1.2 3.6,1.600004 8.2,1.600004 l 8.2,0 c 4.1,0 7.6,-0.300004 10,-0.700004 5.1,-1.1 10.1,-3.6 13.9,-7.1 6,-5.599999 9.5,-13.499999 9.5,-21.599999 -0.1,-3.7 -0.8,-7.2 -2,-10.5 z m -24.7,0 0.9,0.4 c 3.8,1.9 6.3,5.8 6.3,10.2 0,3.6 -1.9,7.2 -4.8,9.4 -2.3,1.6 -3.9,1.9 -10.6,1.9 l 0,-22.8 1.6,0 c 3.1,0 5,0.3 6.6,0.9 l 0,0 z m 134.2,-19.4 c -3.2,0 -6.3,1.7 -7.9,4.2 -1.4,2 -1.8,3.8 -1.8,7.7 l 0,10.9 -2.8,-3.5 -12.6,-15.5 c -2.2,-2.7 -4.4,-3.9 -7.2,-3.9 -6.2,0.1 -10.2,4.2 -10.2,10.5 l 0,37.3 c 0,4.299999 0.4,6.099999 2,8.299999 1.9,2.4 4.8,3.800004 7.8,3.800004 2.9,0 5.7,-1.300004 7.5,-3.500004 1.7,-2.1 2.2,-3.9 2.2,-7.799999 l 0,-12.4 15.4,19.699999 c 2,2.6 4.6,4.000004 7.7,4.000004 3,0 5.8,-1.300004 7.6,-3.600004 1.7,-2.2 2.1,-4.1 2.1,-8.799999 l 0,-36 c 0,-3.6 -0.6,-5.7 -2.3,-7.8 -1.9,-2.3 -4.6,-3.6 -7.5,-3.6 z m 55.7,29.2 6.8,-9.8 3.1,-4.6 c 1,-1.4 1.5,-3.3 1.5,-5.1 0,-5.2 -4.5,-9.7 -9.8,-9.7 -3.3,0 -6.1,1.6 -8,4.5 l -10.1,14.9 -0.7,1 0,-9.4 c 0,-3.5 -0.7,-5.7 -2.6,-7.7 -1.8,-2 -4.5,-3.3 -7.3,-3.3 -5.8,0 -9.7,4.4 -9.7,10.9 l 0,37.8 c 0,6.799999 3.8,11.100003 9.9,11.100003 5.8,0 9.7,-4.400004 9.7,-11.200003 l 0,-10.2 14.6,18.499999 c 1.4,1.8 4.1,2.900004 6.8,2.900004 5.3,0 9.7,-4.500004 9.7,-9.900003 0,-2 -0.6,-3.8 -1.9,-5.3 l -12,-15.4 z m 91,-29.2 c -3.2,0 -6.3,1.7 -7.9,4.2 -1.4,2 -1.8,3.8 -1.8,7.7 l 0,10.9 -2.8,-3.5 -12.6,-15.5 c -2.2,-2.7 -4.4,-3.9 -7.2,-3.9 -6.1,0 -10.2,4.1 -10.2,10.4 l 0,37.3 c 0,4.299999 0.4,6.099999 2,8.299999 1.9,2.4 4.8,3.800004 7.8,3.800004 2.9,0 5.7,-1.300004 7.5,-3.500004 1.7,-2.1 2.2,-3.9 2.2,-7.799999 l 0,-12.3 15.4,19.699999 c 2,2.6 4.6,4.000004 7.7,4.000004 3,0 5.8,-1.300004 7.6,-3.600004 1.7,-2.2 2.1,-4.1 2.1,-8.799999 l 0,-36 c 0,-3.6 -0.6,-5.7 -2.3,-7.8 -1.9,-2.3 -4.5,-3.6 -7.5,-3.6 z m 24.8,0 c -5.1,0 -8.6,6.2 -8.6,11.3 0,2.3 0,5.3 0.5,8.1 0.7,3.5 2.4,6.6 6.3,7.3 4.1,0.8 6.9,-3 8.6,-7.3 l 0,0 c 1.2,-3.2 1.8,-6.8 1.8,-9 0.1,-5.1 -3.4,-10.4 -8.6,-10.4 z m -86.2,0 c -2.8,0 -5.4,1.2 -7.2,3.2 -2,2.2 -2.5,4 -2.5,8.9 l 0,36.5 c 0,4.099999 0.6,6.099999 2.5,8.099999 1.7,1.8 4.6,3.100004 7.2,3.100004 2.6,0 5.4,-1.200004 7.2,-3.300004 1.8,-1.9 2.5,-4.2 2.5,-7.899999 l 0,-36.5 c 0,-4.8 -0.6,-6.8 -2.6,-9 -1.7,-2 -4.3,-3.1 -7.1,-3.1 z"
     id="path5"
     inkscape:connector-curvature="0"
     style="clip-rule:evenodd;fill:#f5821f;fill-rule:evenodd" /><path
     d="m 355.70193,116.61328 c -0.2,-2.5 -0.8,-3.8 -2.1,-5.4 -1.7,-2.1 -4.7,-3.5 -7.5,-3.5 -2.9,0 -5.6,1.4 -7.4,3.7 -1.3,1.6 -1.9,2.7 -2,5.2 0,0.7 -0.1,1.5 -0.1,2.5 l 0,23.5 c 0,4.1 -2,6.7 -5.5,6.7 -3.5,0 -5.5,-2.7 -5.5,-7 l 0,-23.3 c 0,-0.9 0,-1.8 -0.1,-2.5 -0.3,-2.6 -1,-4.2 -2.5,-5.8 -1.7,-1.8 -4.4,-3 -7.1,-3 -2.8,0 -5.7,1.5 -7.6,3.7 -1.2,1.5 -1.7,2.6 -1.9,5.1 -0.1,1 -0.1,2.3 -0.1,4 l 0,20.8 c 0,7.7 1.1,11.8 4.6,16.6 l 0.1,0.2 c 4.7,6.3 12.1,10.2 19.9,10.2 6.9,0 13.8,-3.2 18.6,-8.6 0.5,-0.6 1,-1.2 1.4,-1.7 3.2,-4.4 4.7,-9.7 4.7,-16.6 l 0,-21 c 0.2,-1.5 0.2,-2.7 0.1,-3.8"
     id="path7"
     inkscape:connector-curvature="0"
     style="clip-rule:evenodd;fill:#e11383;fill-rule:evenodd" /><path
     d="m 172.30193,158.11328 c 5.3,-5.5 8.4,-12.9 8.4,-20.5 0,-3.6 -0.7,-7.2 -1.9,-10.6 l 0,0 c -1.5,-3.9 -3.8,-7.4 -6.8,-10.4 l 0,0 -1,-0.9 c -5.7,-5.1 -12.5,-7.5 -21.3,-7.5 l -12,0 c -5.6,0 -9.2,2.2 -10.5,6.3 -0.2,0.7 -0.3,1.1 -0.4,2 l 0,0 c -0.1,0.9 -0.1,2.3 -0.1,4.7 l 0,32.5 c 0,2.1 0,3.3 0,4.2 0,0.9 0.1,1.4 0.3,2.1 0.6,2.3 1.8,3.8 4,5.2 1.7,1.2 3.5,1.6 8.1,1.6 l 8.2,0 c 4.1,0 7.6,-0.3 10,-0.7 5.1,-1 10,-3.6 13.8,-7.1 l 1.2,-0.9 0,0 m -26.4,-31.1 0,-0.9 1.8,0 c 3.2,0 5.2,0.3 6.9,0.9 l 0,0 0.7,0.3 c 3.9,1.9 6.4,5.9 6.4,10.3 0,3.7 -1.9,7.4 -4.8,9.5 -2.3,1.6 -4,1.9 -10.7,2 l -0.2,0 0,-22.1 z"
     id="path13"
     inkscape:connector-curvature="0"
     style="clip-rule:evenodd;fill:#e11383;fill-rule:evenodd" /><path
     d="m 242.60193,127.01328 c -1.4,-3.9 -3.6,-7.4 -6.4,-10.4 -5.7,-6 -13.7,-9.8 -22.7,-9.8 -9,0 -17.1,3.8 -22.8,9.8 l 0,0 c -2.8,3 -4.9,6.5 -6.3,10.3 l 0,0 c -1.2,3.2 -1.8,6.7 -1.8,10.3 0,8 2.9,15.3 7.8,20.8 l 0,0 c 5.6,6.4 13.9,10.4 23.2,10.4 9.1,0 17.4,-4 23,-10.4 4.9,-5.5 7.9,-12.7 7.9,-20.5 0,-3.7 -0.7,-7.2 -1.9,-10.5 m -29,22.5 c -6.5,0 -11.8,-5.4 -11.8,-11.9 0,-4.7 2.9,-8.8 7.1,-10.6 1.4,-0.6 3,-0.9 4.7,-0.9 1.7,0 3.2,0.3 4.7,0.9 4.2,1.8 7.1,5.9 7.1,10.6 0,6.5 -5.3,11.9 -11.8,11.9 z"
     id="path15"
     inkscape:connector-curvature="0"
     style="clip-rule:evenodd;fill:#e11383;fill-rule:evenodd" /><path
     d="m 300.00193,116.61328 c -0.2,-2.2 -0.9,-3.8 -2.2,-5.4 -1.8,-2.2 -4.4,-3.5 -7.3,-3.5 -3.1,0 -6.2,1.7 -7.8,4.2 -1,1.4 -1.4,2.7 -1.6,4.7 l 0,0 c -0.1,0.8 -0.1,1.8 -0.1,2.9 l 0,11.5 -3.3,-4.1 -8.4,-10.4 -4.1,-5 c -2.2,-2.7 -4.3,-3.8 -7.1,-3.8 -5.5,0 -9.4,3.5 -9.9,8.8 0,0.5 -0.1,1 -0.1,1.4 l 0,37.3 c 0,1 0,1.9 0.1,2.7 0.2,2.5 0.7,3.9 1.9,5.6 1.8,2.3 4.7,3.7 7.7,3.7 2.9,0 5.6,-1.3 7.4,-3.5 1.4,-1.7 2,-3.2 2.1,-5.8 0,-0.6 0,-1.2 0,-1.9 l 0,-12.9 11.5,14.7 4.2,5.4 c 2,2.6 4.5,3.9 7.6,3.9 3,0 5.7,-1.3 7.5,-3.6 1.2,-1.6 1.8,-3.1 2,-5.7 0.1,-0.9 0.1,-1.9 0.1,-3 l 0,-36.1 c -0.1,-0.6 -0.1,-1.4 -0.2,-2.1"
     id="path17"
     inkscape:connector-curvature="0"
     style="clip-rule:evenodd;fill:#e11383;fill-rule:evenodd" /><path
     d="m 407.70193,116.61328 c -0.2,-4.3 -3.4,-7.6 -7.8,-8.2 -0.6,-0.1 -0.9,-0.1 -1.7,-0.2 -0.8,0 -2.2,0 -4.9,0 l -19.6,0 c -7.7,0 -8.5,0.1 -10.5,1 -2.6,1.1 -4.7,4.3 -4.9,7.4 l 0,0 0,0.5 c 0,2.3 1,4.5 2.7,6.3 1.7,1.7 3.9,2.5 7.2,2.5 l 5.4,0 0,29.7 c 0,0.9 0,1.6 0.1,2.3 0.1,2.4 0.6,3.7 1.6,5.3 1.8,2.5 4.7,4 7.9,4 3.3,0 6.2,-1.6 7.9,-4.3 0.9,-1.5 1.4,-2.9 1.6,-5 0.1,-0.7 0.1,-1.5 0.1,-2.5 l 0,-29.6 4.5,0 c 3.5,0 5.9,-0.7 7.4,-2.1 1.9,-1.7 3.1,-4.3 3.1,-6.9 l -0.1,-0.2"
     id="path19"
     inkscape:connector-curvature="0"
     style="clip-rule:evenodd;fill:#e11383;fill-rule:evenodd" /><path
     d="m 444.90193,134.81328 c -2.7,-2.3 -7.5,-4.7 -12.5,-6.2 -2,-0.6 -3.3,-1.2 -4.3,-1.7 l 0,0 c -1.2,-0.7 -1.7,-1.4 -1.7,-2.5 0,-1.3 1.1,-2.5 2.5,-2.5 1.1,0 2.1,0.5 4.2,2.2 2,1.5 3.5,2.4 5,2.9 l 0,0 c 1,0.3 1.9,0.5 3,0.5 1,0 1.9,-0.2 2.7,-0.5 l 0,0 c 2.9,-1.1 4.7,-3.8 4.7,-7.4 0,-1 -0.2,-2 -0.5,-2.9 -1.9,-5.7 -9.2,-9.8 -18.3,-9.8 -8.8,0 -15.7,3.7 -19.1,9.8 l 0,0 c -1.5,2.7 -2.4,5.9 -2.4,9.4 l 0,1 0,0 c 0.3,7.6 4.5,12.8 12.7,15.7 1.6,0.6 3.2,1.1 4.8,1.7 3.1,1.1 3.4,1.3 3.9,1.7 1.1,0.7 1.6,1.5 1.6,2.6 0,1.6 -1,2.7 -2.6,2.7 -1.5,0 -2.1,-0.4 -6.3,-3.7 -2.5,-2 -4.5,-2.8 -6.8,-2.8 -4.9,0 -8.7,3.8 -8.7,8.7 0,1.6 0.3,3 1,4.4 l 0,0 c 2.7,6 10.9,10.4 21.1,10.4 7.2,0 12.5,-2 16.4,-5.9 1.3,-1.3 2.4,-2.8 3.2,-4.5 1.5,-2.9 2.3,-6.1 2.3,-9.5 0,-5.5 -2.3,-10.8 -5.9,-13.8"
     id="path21"
     inkscape:connector-curvature="0"
     style="clip-rule:evenodd;fill:#e11383;fill-rule:evenodd" /><path
     d="m 11.501934,55.313277 c -4.1000004,-0.1 -7.9000004,-1.8 -10.7000004,-4.4 -0.3,1.1 -0.5,2.4 -0.5,3.6 l 0,11.6 c 1.6,-3.4 5.3,-7 11.2000004,-10.8"
     id="path23"
     inkscape:connector-curvature="0"
     style="fill:#f5821f" /><path
     d="m 21.901934,110.71328 c -4.7,-0.6 -7.8,-2.6 -9.1,-5.7 L 0.9019336,74.813277 l -0.5,-1 0,79.600003 c 0,7.9 6.4,14.3 14.3000004,14.3 l 37.5,0 c -1.3,-1.3 -2.4,-2.8 -3.3,-4.6 0,0 -23,-44.5 -27,-52.4"
     id="path25"
     inkscape:connector-curvature="0"
     style="fill:#f5821f" /><path
     d="m 99.901934,40.213277 -21.2,0 0.1,0.1 c 0.4,0.5 0.7,1.1 0.9,1.7 0.2,0.4 0.3,0.9 0.4,1.4 10.3,26 11.7,29.7 11.9,30.2 l 0,0 0,0.1 0,-0.1 c 0.4,0.9 0.5,1.9 0.5,2.9 0,2.4 -1,4.9 -3.2,7.5 2.6,7.999999 7.3,23.900003 15.699996,55.000003 l 0.5,1.7 0,-0.1 c 3.3,10.7 -1.6,20.7 -12.899996,27.3 l 7.3,0 c 7.899996,0 14.299996,-6.4 14.299996,-14.3 l 0,-99.100003 c 0,-7.9 -6.4,-14.3 -14.299996,-14.3"
     id="path27"
     inkscape:connector-curvature="0"
     style="fill:#e11383" /><path
     d="m 55.801934,41.513277 0,0 c -6.1,1.3 -13.3,3.5 -19.9,6.1 -6.6,2.6 -13.4,5.9 -18.7,9.2 -9.3000004,5.5 -14.1000004,10.5 -13.2000004,13.8 l 0,0.3 c 0,0.4 0.1,0.7 0.2,1 l 0.4,0.7 0.2,0.4 12.0000004,30.400003 c 0.7,1.8 3,2.9 6.8,3.2 0.6,0.1 1.2,0.4 1.5,1 l 27.7,53.6 c 5.3,10.5 20.5,10.2 32.3,5.4 13.3,-5.4 19.399996,-14.6 16.299996,-24.8 l -0.5,-1.7 c -8.899996,-32.9 -13.699996,-48.700004 -16.099996,-56.200003 -0.2,-0.6 -0.1,-1.3 0.4,-1.8 2.6,-2.8 3.5,-5.1 2.8,-7 l -12,-30.4 -0.1,-0.4 -0.2,-0.8 -0.5,-0.9 -0.2,-0.2 c -1.7,-3 -8.6,-3.3 -19.2,-0.9"
     id="path29"
     inkscape:connector-curvature="0"
     style="fill:#683817" /><path
     d="m 32.201934,3.8132771 c -3.4,2.5 -5.5,6.1999999 -6.2,10.5999999 -0.9,6.1 2.6,10.2 5.7,13.8 3.3,3.9 6.2,7.3 4.4,13.2 -0.2,0.6 -0.1,1.1 0.2,1.6 0.3,0.5 0.7,0.9 1.3,1 1.1,0.4 2.3,-0.3 2.7,-1.4 2.5,-8.1 -1.8,-13.2 -5.3,-17.2 -3.3,-3.8 -5.3,-6.4 -4.7,-10.4 0.5,-3.3 2,-5.8999999 4.5,-7.6999999 3.6,-2.7 8.3,-3 9.5,-2.8 5.1,0.8 6.6,4.7 7,6.2999999 0.3,1.1 0.3,2.2 0.2,3.3 -0.3,2.3 -1.4,4.3 -3.2,5.7 l -0.1,0 c -2.1,1.1 -3.9,1.1 -5,0 -1.1,-1 -1.2,-2.6 -0.8,-3.5 0.4,-0.8 1.5,-1.1 3.1,-0.9 0.6,0.1 1.1,0 1.6,-0.4 0.5,-0.3 0.8,-0.8 0.9,-1.4 0.2,-1.2 -0.6,-2.3 -1.8,-2.5 -3.5,-0.6 -6.3,0.6 -7.6,3.1 -1.4,2.7 -0.7,6.3 1.6,8.5 2.6,2.5 6.4,2.7 10.3,0.6 l 0.3,-0.2 c 4.2,-3.1 6,-8.5 4.8,-13.5999999 -1.2,-5 -5.2,-8.5999996 -10.5,-9.4999996 -2.3,-0.1 -8.2,0.3 -12.9,3.7999996"
     id="path31"
     inkscape:connector-curvature="0"
     style="fill:#683817" /><path
     d="m 6.9019336,27.213277 c -4.4,3.1 -6.4,6.8 -6.8,10.4 -0.4,3.1 0.4,6 2,8.3 3.3,4.8 10.1000004,7.2 17.0000004,2.7 l 0.1,-0.1 c 3.6,-2.7 3.5,-8.1 1.1,-11.4 -2.3,-3.2 -6,-3.7 -9.5,-1.4 -1.0000004,0.7 -1.2000004,2 -0.6,3 0.3,0.5 0.8,0.8 1.4,0.9 0.6,0.1 1.1,0 1.6,-0.3 2,-1.4 3,-0.5 3.6,0.3 0.7,0.9 1,2.3 0.8,3.5 -0.1,0.9 -0.4,1.5 -1,1.9 -4.7,3.1 -8.9000004,1.4 -11.0000004,-1.6 -2.3,-3.4 -2.1,-8.6 3.7,-12.7 5.7000004,-3.9 9.9000004,-1.5 11.8000004,0.3 3.7,3.4 5.2,9.3 3.1,12.9 -0.6,1 -0.2,2.4 0.8,2.9 0.5,0.3 1.1,0.4 1.6,0.2 0.6,-0.2 1,-0.5 1.3,-1 3,-5.4 1.3,-13.4 -4,-18.2 -4.6,-4.4 -11.1,-4.7 -17.0000004,-0.6"
     id="path33"
     inkscape:connector-curvature="0"
     style="fill:#683817" /><path
     d="m 67.401934,49.913277 c -7,0.8 -17.4,3.6 -27.4,7.5 -10,4 -19.6,9.4 -25.2,13.7 -3.9,0.3 -6.3000004,0 -7.2000004,-0.5 0.6,-2.4 10.2000004,-11.2 30.0000004,-19.1 19.8,-7.9 32.5,-8.3 34.6,-6.9 -0.2,1 -1.7,2.9 -4.8,5.3"
     id="path35"
     inkscape:connector-curvature="0"
     style="fill:#ffffff" /><path
     d="m 97.401934,142.71328 c 2.599996,8.6 -3.9,15.7 -13.9,19.7 -10.4,4.2 -23.1,4.4 -27,-3.4 -1.3,-2.7 -18.7,-34.6 -27.2,-52.5 8.7,-0.9 19.3,-4 27,-7.100004 7.8,-3.1 17.6,-8.1 24.5,-13.399999 6.3,18.900003 15.7,53.800003 16.6,56.700003"
     id="path37"
     inkscape:connector-curvature="0"
     style="fill:#ffffff" /><path
     d="m 54.901934,95.313276 c -18.3,7.200004 -32.1,7.800004 -34.2,6.000004 l -10.1,-25.100003 c 9.4,0.7 24,-3.8 33.6,-7.6 9.6,-3.8 23.3,-10.6 29.7,-17.5 l 10.1,25.1 c -0.4,2.7 -10.8,11.8 -29.1,19.099999"
     id="path39"
     inkscape:connector-curvature="0"
     style="fill:#ffffff" /><path
     d="m 62.201934,115.01328 c -1,-1.1 -2.2,-1.9 -3.6,-2.4 -2.3,-0.9 -4.7,-0.8 -7.4,-0.1 -1.2,0.3 -2.5,0.7 -3.7,0.9 -1.8,0.4 -2.6,1.3 -2.5,2.5 0,0.4 0.1,0.6 0.7,1.9 1.4,3 2.7,6.1 4.1,9.1 0.5,1.1 0.6,1.4 0.9,1.8 0.5,0.6 1,1 1.9,1.2 0.7,0.2 1.3,0.2 2.6,-0.1 0.8,-0.2 1.6,-0.4 2.4,-0.6 1.2,-0.3 2.2,-0.7 2.8,-1 1.4,-0.7 2.5,-1.9 3.2,-3.3 1.1,-2.2 1.2,-4.9 0.3,-7.2 -0.4,-0.9 -1,-1.9 -1.7,-2.7 m -4.3,7.9 c -0.5,0.6 -0.9,0.9 -2.9,1.4 -0.9,-2.1 -1.8,-4.3 -2.7,-6.4 l 0.5,-0.1 c 0.9,-0.2 1.5,-0.3 2.1,-0.3 l 0.3,0 c 1.4,0.2 2.6,1.1 3.1,2.3 0.4,1.1 0.2,2.3 -0.4,3.1 z"
     id="path41"
     inkscape:connector-curvature="0"
     style="clip-rule:evenodd;fill:#f5821f;fill-rule:evenodd" /><path
     d="m 78.501934,106.91328 c -0.9,-1 -2,-1.7 -3.2,-2.1 -2.1,-0.6 -4.2,-0.2 -6.8,1.1 -1.2,0.6 -2.3,1.1 -3.5,1.6 -1.6,0.7 -2.5,1.8 -2.4,3.2 0,0.4 0.1,0.6 0.6,2 1.2,3.1 2.4,6.2 3.6,9.3 0.4,1.2 0.5,1.4 0.8,1.8 0.4,0.6 1,0.9 1.7,1 0.6,0.1 1.2,0 2.5,-0.5 0.8,-0.3 1.5,-0.7 2.3,-1 1.1,-0.5 2,-1.1 2.6,-1.6 1.3,-1 2.3,-2.5 3,-4.1 1,-2.6 1.2,-5.5 0.4,-7.9 -0.5,-1.1 -1,-2 -1.6,-2.8 m -4.1,9.3 c -0.5,0.8 -0.9,1.1 -2.7,2 -0.8,-2.2 -1.6,-4.4 -2.4,-6.6 l 0.5,-0.2 c 0.9,-0.4 1.4,-0.6 1.9,-0.7 l 0.3,0 c 1.3,0 2.3,0.8 2.8,2 0.3,1.1 0.2,2.5 -0.4,3.5 z"
     id="path43"
     inkscape:connector-curvature="0"
     style="clip-rule:evenodd;fill:#e11383;fill-rule:evenodd" /></svg>